<svg xmlns="http://www.w3.org/2000/svg" viewBox="0 0 330.24 62.26"><defs><style>.a,.c{fill:#fff;}.a{fill-rule:evenodd;}.b{fill:none;stroke:#fff;stroke-miterlimit:10;}</style></defs><title>logo</title><path class="a" d="M223.43,21.39a15.73,15.73,0,0,0-1.87-.09,11.47,11.47,0,0,0-1.87.09h0l-0.06-.9,0.85-.08-0.3-4.51h-1.25V14.67h0s0.21-.19,2.63-0.19,2.64,0.19,2.64.19h0V15.9h-1.25l-0.3,4.51,0.85,0.08-0.06.9h0Z" transform="translate(-8.25 -4.44)"/><path class="a" d="M219.18,21.51s-0.62.17-1.74,0.62a12.94,12.94,0,0,0-1.7.81h0l-0.4-.81,0.74-.38-2-4.06-1.17.49L212.44,17h0a7.9,7.9,0,0,1,2.38-1.19c2.23-.91,2.51-0.83,2.51-0.83h0l0.47,1.15-1.17.47,1.47,4.29,0.81-.28,0.28,0.87h0Z" transform="translate(-8.25 -4.44)"/><path class="a" d="M215.32,23.26a15.66,15.66,0,0,0-1.38,1.23,13.17,13.17,0,0,0-1.25,1.4h0L212,25.3l0.55-.66-3.4-3-0.89.89-0.87-.87h0s0-.3,1.74-2,2-1.74,2-1.74h0L212,18.82l-0.89.89,3,3.4,0.66-.55,0.57,0.7h0Z" transform="translate(-8.25 -4.44)"/><path class="a" d="M212.42,26.32a12.92,12.92,0,0,0-.81,1.68,11.76,11.76,0,0,0-.64,1.76h0l-0.85-.28,0.26-.83-4.27-1.45-0.49,1.17-1.15-.46h0s-0.08-.28.85-2.53A8.08,8.08,0,0,1,206.49,23h0l1.15,0.47-0.47,1.17,4,2,0.4-.76,0.81,0.43h0Z" transform="translate(-8.25 -4.44)"/><path class="a" d="M210.89,30.25a18.27,18.27,0,0,0-.11,1.87,12.67,12.67,0,0,0,.11,1.87h0l-0.89.06-0.08-.85-4.51.3v1.25h-1.23S204,34.54,204,32.12s0.19-2.66.19-2.66h1.23v1.28l4.51,0.3,0.08-.85,0.89,0.06h0Z" transform="translate(-8.25 -4.44)"/><path class="a" d="M211,34.48a13,13,0,0,0,.62,1.72,10.33,10.33,0,0,0,.81,1.7h0l-0.81.4-0.4-.74-4,2,0.47,1.15-1.15.49h0a8.78,8.78,0,0,1-1.17-2.38c-0.93-2.23-.85-2.51-0.85-2.51h0l1.15-.47L206.11,37l4.27-1.45-0.26-.81,0.87-.28h0Z" transform="translate(-8.25 -4.44)"/><path class="a" d="M212.7,38.32a18.26,18.26,0,0,0,1.23,1.4,10.87,10.87,0,0,0,1.4,1.23h0l-0.59.7-0.66-.55-3,3.4L212,45.4l-0.87.87h0s-0.3,0-2-1.74-1.74-2-1.74-2h0l0.87-.87,0.89,0.89,3.4-3L212,38.92l0.7-.59h0Z" transform="translate(-8.25 -4.44)"/><path class="a" d="M215.76,41.28a14.05,14.05,0,0,0,1.66.79,12.25,12.25,0,0,0,1.79.64h0l-0.3.85-0.81-.25-1.45,4.27,1.17,0.49-0.49,1.15h0s-0.28.08-2.51-.85-2.36-1.17-2.36-1.17h0L212.93,46l1.17,0.49,2-4.06-0.77-.4,0.43-.79h0Z" transform="translate(-8.25 -4.44)"/><path class="a" d="M219.71,42.81a16.62,16.62,0,0,0,1.85.11,9.65,9.65,0,0,0,1.87-.11h0l0.08,0.91-0.87.06,0.3,4.51h1.28v1.25h0a8.26,8.26,0,0,1-2.66.17,8,8,0,0,1-2.63-.17h0V48.29h1.25l0.3-4.51-0.85-.06,0.09-.91h0Z" transform="translate(-8.25 -4.44)"/><path class="a" d="M224,42.72a13.89,13.89,0,0,0,1.77-.62,11.53,11.53,0,0,0,1.68-.81h0l0.43,0.81-0.77.38,2,4.06,1.17-.49,0.47,1.15h0s-0.13.26-2.38,1.19-2.51.83-2.51,0.83h0l-0.47-1.15,1.17-.47-1.44-4.29-0.83.28L224,42.72h0Z" transform="translate(-8.25 -4.44)"/><path class="a" d="M227.88,41a15.7,15.7,0,0,0,1.38-1.23,12.74,12.74,0,0,0,1.25-1.4h0l0.68,0.6-0.55.66,3.4,3,0.89-.89,0.87,0.87h0s0,0.3-1.74,2-2,1.74-2,1.74h0l-0.87-.87,0.89-.89-3-3.4-0.66.55-0.57-.7h0Z" transform="translate(-8.25 -4.44)"/><path class="a" d="M230.81,37.92a18.47,18.47,0,0,0,.81-1.68,9.4,9.4,0,0,0,.62-1.74h0l0.87,0.28-0.25.81L237.12,37l0.49-1.17,1.13,0.47h0s0.09,0.28-.83,2.51-1.19,2.38-1.19,2.38h0l-1.15-.47,0.49-1.17-4-2-0.4.76-0.81-.43h0Z" transform="translate(-8.25 -4.44)"/><path class="a" d="M232.34,34a18.64,18.64,0,0,0,.1-1.87,12.93,12.93,0,0,0-.1-1.87h0l0.89-.07L233.31,31l4.51-.3V29.46h1.23s0.19,0.21.19,2.64-0.19,2.64-.19,2.64h-1.23V33.48l-4.51-.3-0.09.85L232.34,34h0Z" transform="translate(-8.25 -4.44)"/><path class="a" d="M232.23,29.69s-0.17-.61-0.62-1.74a13,13,0,0,0-.81-1.7h0l0.81-.4L232,26.61l4.06-2-0.49-1.17,1.15-.49h0a7.82,7.82,0,0,1,1.17,2.38c0.94,2.23.85,2.51,0.85,2.51h0l-1.15.47-0.49-1.17-4.27,1.47,0.25,0.81-0.85.27h0Z" transform="translate(-8.25 -4.44)"/><path class="a" d="M230.47,25.83a17.68,17.68,0,0,0-1.23-1.4,12.42,12.42,0,0,0-1.38-1.23h0l0.57-.7L229.09,23l3-3.4-0.89-.89,0.87-.87h0s0.3,0,2,1.74,1.74,2,1.74,2h0l-0.87.87L234,21.6l-3.4,3,0.55,0.66-0.7.59h0Z" transform="translate(-8.25 -4.44)"/><path class="a" d="M227.39,22.9a18.25,18.25,0,0,0-1.68-.81,9.82,9.82,0,0,0-1.76-.62h0l0.28-.85L225,20.88l1.45-4.27-1.17-.49L225.79,15h0s0.28-.08,2.51.85S230.68,17,230.68,17h0l-0.47,1.15L229,17.65l-2,4.06,0.74,0.38-0.4.81h0Z" transform="translate(-8.25 -4.44)"/><path class="a" d="M216.78,27.57a8.37,8.37,0,0,0-.68.92,5.79,5.79,0,0,0-.57,1h0L215,29.19l0.25-.45-2.4-1.38-0.43.64-0.64-.43h0a5.54,5.54,0,0,1,.81-1.4,4.28,4.28,0,0,1,1-1.28h0l0.61,0.42-0.42.64L216,27.64l0.34-.41,0.43,0.34h0Z" transform="translate(-8.25 -4.44)"/><path class="a" d="M215.4,29.76a9.11,9.11,0,0,0-.28,1.1A6.45,6.45,0,0,0,215,32h0l-0.55-.06,0-.51-2.72-.36-0.15.77-0.74-.15h0a4.61,4.61,0,0,1,.19-1.62,4.89,4.89,0,0,1,.43-1.55h0l0.75,0.13-0.15.77,2.68,0.72,0.13-.51,0.53,0.15h0Z" transform="translate(-8.25 -4.44)"/><path class="a" d="M215,32.31a9.47,9.47,0,0,0,.17,1.13,5.91,5.91,0,0,0,.28,1.1h0l-0.53.15-0.15-.49-2.66.7,0.15,0.75-0.74.15h0a4.63,4.63,0,0,1-.43-1.53,4.53,4.53,0,0,1-.21-1.61h0l0.74-.15,0.15,0.77,2.74-.36-0.06-.53,0.55-.06h0Z" transform="translate(-8.25 -4.44)"/><path class="a" d="M215.55,34.84a11,11,0,0,0,.57,1,8.52,8.52,0,0,0,.7.91h0l-0.45.34-0.32-.4-2.19,1.68L214.29,39l-0.62.42h0a4.38,4.38,0,0,1-1-1.27,4.48,4.48,0,0,1-.81-1.4h0l0.64-.42,0.42,0.64,2.38-1.36-0.26-.47,0.49-.25h0Z" transform="translate(-8.25 -4.44)"/><path class="a" d="M217,36.92s0.3,0.26.91,0.68a6,6,0,0,0,1,.57h0l-0.26.49-0.47-.25-1.38,2.4,0.66,0.43-0.43.64h0a4.52,4.52,0,0,1-1.4-.81,5.1,5.1,0,0,1-1.3-1h0l0.43-.62,0.64,0.43,1.68-2.19-0.4-.34,0.34-.42h0Z" transform="translate(-8.25 -4.44)"/><path class="a" d="M219.22,38.3a8.66,8.66,0,0,0,1.11.28,5.47,5.47,0,0,0,1.13.17h0l-0.07.55-0.53-.06L220.52,42l0.75,0.15-0.15.74h0a4.44,4.44,0,0,1-1.59-.21,4.09,4.09,0,0,1-1.57-.42h0l0.15-.75,0.76,0.15,0.7-2.66-0.49-.15,0.15-.53h0Z" transform="translate(-8.25 -4.44)"/><path class="a" d="M221.78,38.75a11.07,11.07,0,0,0,1.13-.15,6.49,6.49,0,0,0,1.1-.3h0l0.15,0.53-0.51.15,0.72,2.68,0.77-.15,0.15,0.72h0a4.36,4.36,0,0,1-1.57.42,4.44,4.44,0,0,1-1.59.21h0L222,42.13l0.74-.15-0.36-2.74-0.51.06-0.06-.55h0Z" transform="translate(-8.25 -4.44)"/><path class="a" d="M224.3,38.2s0.34-.17,1-0.57a6.65,6.65,0,0,0,.91-0.7h0l0.34,0.45-0.41.32,1.68,2.19,0.64-.43,0.43,0.62h0a4.35,4.35,0,0,1-1.27,1,4.54,4.54,0,0,1-1.4.81h0l-0.43-.64,0.64-.43L225,38.43l-0.47.25-0.25-.49h0Z" transform="translate(-8.25 -4.44)"/><path class="a" d="M226.43,36.71s0.25-.3.68-0.91a5.52,5.52,0,0,0,.57-1h0l0.49,0.25-0.26.47,2.4,1.36,0.42-.64,0.64,0.41h0a5,5,0,0,1-.81,1.4,5.1,5.1,0,0,1-1,1.3h0L229,39l0.43-.64-2.19-1.68-0.34.4-0.42-.34h0Z" transform="translate(-8.25 -4.44)"/><path class="a" d="M227.83,34.54a11.12,11.12,0,0,0,.27-1.1,9,9,0,0,0,.17-1.15h0l0.53,0.06,0,0.53,2.74,0.36,0.15-.77,0.75,0.15h0a5.69,5.69,0,0,1-.21,1.61,4.61,4.61,0,0,1-.43,1.53h0L231,35.62l0.15-.72-2.66-.72-0.15.51-0.53-.15h0Z" transform="translate(-8.25 -4.44)"/><path class="a" d="M228.28,32a9,9,0,0,0-.17-1.13,5.82,5.82,0,0,0-.27-1.1h0l0.53-.15,0.15,0.49,2.66-.7L231,28.61l0.74-.15h0a4.76,4.76,0,0,1,.43,1.55,4.48,4.48,0,0,1,.21,1.62h0l-0.75.15L231.51,31l-2.74.36,0.06,0.53-0.55.06h0Z" transform="translate(-8.25 -4.44)"/><path class="a" d="M227.7,29.42s-0.17-.34-0.57-1a6.58,6.58,0,0,0-.7-0.91h0l0.45-.34,0.32,0.4,2.19-1.68L229,25.28l0.64-.42h0a4.22,4.22,0,0,1,1,1.28,4.53,4.53,0,0,1,.81,1.4h0l-0.62.43-0.45-.64-2.38,1.38,0.26,0.45-0.49.28h0Z" transform="translate(-8.25 -4.44)"/><path class="a" d="M226.19,27.3s-0.3-.26-0.91-0.68a6,6,0,0,0-1-.57h0l0.28-.49L225,25.81l1.38-2.4L225.77,23l0.43-.64h0a5.57,5.57,0,0,1,1.4.81,4.42,4.42,0,0,1,1.27,1h0l-0.43.62-0.64-.43-1.68,2.19,0.41,0.34-0.34.43h0Z" transform="translate(-8.25 -4.44)"/><path class="a" d="M224,25.91s-0.36-.12-1.08-0.3a6.51,6.51,0,0,0-1.15-.15h0l0.06-.55L222.35,25l0.36-2.74-0.77-.15,0.15-.74h0a4.44,4.44,0,0,1,1.59.21,4.8,4.8,0,0,1,1.57.4h0l-0.15.74-0.76-.15-0.7,2.68,0.49,0.15-0.15.53h0Z" transform="translate(-8.25 -4.44)"/><path class="a" d="M221.43,25.49a10.29,10.29,0,0,0-1.13.15,6.89,6.89,0,0,0-1.11.3h0L219,25.4l0.51-.15-0.72-2.68-0.75.15L217.93,22h0a4.83,4.83,0,0,1,1.55-.42,4.66,4.66,0,0,1,1.62-.19h0l0.15,0.75-0.77.15L220.84,25l0.53,0,0.07,0.55h0Z" transform="translate(-8.25 -4.44)"/><path class="a" d="M218.88,26.06s-0.34.17-1,.57a8.91,8.91,0,0,0-.91.7h0l-0.34-.44,0.4-.32-1.68-2.19-0.64.42-0.43-.64h0a6,6,0,0,1,1.27-1,4.3,4.3,0,0,1,1.42-.81h0l0.4,0.64-0.64.43,1.38,2.38,0.47-.25,0.25,0.49h0Z" transform="translate(-8.25 -4.44)"/><path class="a" d="M218.14,30a3.7,3.7,0,0,0-.3.62,3.24,3.24,0,0,0-.23.66h0l-0.32-.11,0.09-.3-1.59-.53-0.19.43-0.42-.17h0a3.18,3.18,0,0,1,.32-0.94,2.38,2.38,0,0,1,.45-0.89h0l0.42,0.17-0.19.45,1.53,0.75,0.15-.3,0.3,0.17h0Z" transform="translate(-8.25 -4.44)"/><path class="a" d="M217.57,31.46s0,0.23,0,.68a2.54,2.54,0,0,0,0,.7h0l-0.34,0,0-.34-1.68.13v0.47h-0.47a3,3,0,0,1-.06-1,3.14,3.14,0,0,1,.06-1h0.47v0.47l1.68,0.11,0-.32,0.34,0h0Z" transform="translate(-8.25 -4.44)"/><path class="a" d="M217.63,33a3.25,3.25,0,0,0,.23.66,5.12,5.12,0,0,0,.3.64h0l-0.3.15-0.15-.28-1.53.74,0.19,0.42-0.43.19h0a2.68,2.68,0,0,1-.45-0.89,3.25,3.25,0,0,1-.32-0.93h0l0.42-.19L215.8,34l1.59-.55-0.11-.3,0.34-.1h0Z" transform="translate(-8.25 -4.44)"/><path class="a" d="M218.27,34.48a6.16,6.16,0,0,0,.47.51,2.78,2.78,0,0,0,.53.47h0l-0.23.25-0.23-.19-1.13,1.25L218,37.09l-0.32.34h0a3.31,3.31,0,0,1-.77-0.66,2.52,2.52,0,0,1-.64-0.74h0l0.32-.32L217,36l1.27-1.08L218,34.69l0.26-.21h0Z" transform="translate(-8.25 -4.44)"/><path class="a" d="M219.42,35.56s0.21,0.11.64,0.28a3.23,3.23,0,0,0,.66.23h0l-0.11.32-0.32-.08-0.53,1.59,0.45,0.19-0.19.43h0a3.31,3.31,0,0,1-.94-0.32,2.82,2.82,0,0,1-.89-0.44h0l0.19-.43,0.42,0.19L219.54,36l-0.28-.15,0.15-.28h0Z" transform="translate(-8.25 -4.44)"/><path class="a" d="M220.88,36.11a4.62,4.62,0,0,0,.7,0,4.32,4.32,0,0,0,.7,0h0l0,0.34-0.32,0,0.13,1.7,0.47,0v0.46h0a2.32,2.32,0,0,1-1,.09,2.26,2.26,0,0,1-1-.09h0V38.18h0.47l0.11-1.7-0.32,0,0-.34h0Z" transform="translate(-8.25 -4.44)"/><path class="a" d="M222.48,36.07a3.21,3.21,0,0,0,.66-0.23c0.43-.17.64-0.28,0.64-0.28h0l0.15,0.28-0.28.15,0.74,1.53,0.43-.19L225,37.75h0a2.83,2.83,0,0,1-.89.44,3.32,3.32,0,0,1-.94.32h0L223,38.09l0.45-.19-0.56-1.59-0.3.11-0.1-.34h0Z" transform="translate(-8.25 -4.44)"/><path class="a" d="M223.92,35.46s0.19-.15.53-0.47a6.64,6.64,0,0,0,.47-0.51h0l0.26,0.21-0.21.25L226.24,36l0.34-.34L226.9,36h0a2.52,2.52,0,0,1-.64.74,3.12,3.12,0,0,1-.74.66h0l-0.34-.34,0.34-.34-1.13-1.23-0.23.17-0.24-.23h0Z" transform="translate(-8.25 -4.44)"/><path class="a" d="M225,34.31a5.47,5.47,0,0,0,.3-0.62,3.17,3.17,0,0,0,.23-0.68h0l0.32,0.1-0.09.32L227.39,34l0.19-.42L228,33.71h0a3.18,3.18,0,0,1-.32.94,2.3,2.3,0,0,1-.44.89h0l-0.42-.17,0.19-.45-1.53-.74-0.15.28-0.3-.15h0Z" transform="translate(-8.25 -4.44)"/><path class="a" d="M225.6,32.82a4.1,4.1,0,0,0,0-.68,4.26,4.26,0,0,0,0-.7h0l0.34,0,0,0.32,1.7-.11V31.14h0.47a2.93,2.93,0,0,1,.06,1,3,3,0,0,1-.06,1h-0.47V32.65l-1.7-.13,0,0.32-0.34,0h0Z" transform="translate(-8.25 -4.44)"/><path class="a" d="M225.58,31.23a6.53,6.53,0,0,0-.23-0.66A4.62,4.62,0,0,0,225,30h0l0.32-.17,0.15,0.3,1.51-.77-0.19-.42,0.42-.19h0a2.83,2.83,0,0,1,.44.89,2.58,2.58,0,0,1,.32.94h0l-0.43.19-0.19-.45-1.59.55,0.11,0.3-0.32.11h0Z" transform="translate(-8.25 -4.44)"/><path class="a" d="M224.92,29.76l-0.47-.51a6.19,6.19,0,0,0-.51-0.47h0l0.21-.26,0.23,0.21,1.13-1.27-0.34-.34,0.32-.32h0a2.63,2.63,0,0,1,.77.64,2.52,2.52,0,0,1,.64.74h0l-0.32.34-0.34-.34L225,29.31l0.21,0.23-0.26.21h0Z" transform="translate(-8.25 -4.44)"/><path class="a" d="M223.75,28.68a3.59,3.59,0,0,0-.62-0.3,3.14,3.14,0,0,0-.66-0.23h0l0.1-.32,0.3,0.08,0.53-1.59L223,26.13l0.17-.43h0a3.26,3.26,0,0,1,.94.32,2.36,2.36,0,0,1,.89.45h0l-0.17.42-0.45-.19-0.74,1.53,0.3,0.15-0.17.3h0Z" transform="translate(-8.25 -4.44)"/><path class="a" d="M222.26,28.1l-0.68,0a4.22,4.22,0,0,0-.7,0h0l0-.34,0.32,0-0.11-1.68h-0.47V25.6h0a3,3,0,0,1,1-.06,2.26,2.26,0,0,1,1,.06h0V26l-0.47,0L222,27.74l0.34,0,0,0.34h0Z" transform="translate(-8.25 -4.44)"/><path class="a" d="M220.67,28.15a6.71,6.71,0,0,0-.66.23,5.1,5.1,0,0,0-.62.32h0l-0.17-.3,0.3-.15-0.76-1.53-0.43.19-0.17-.42h0A2.27,2.27,0,0,1,219,26a2.48,2.48,0,0,1,.94-0.32h0l0.19,0.43-0.45.19,0.55,1.59,0.3-.1,0.11,0.32h0Z" transform="translate(-8.25 -4.44)"/><path class="a" d="M219.22,28.8a5.66,5.66,0,0,0-.51.47,2.84,2.84,0,0,0-.47.53h0L218,29.57l0.21-.24-1.28-1.1-0.32.32-0.34-.32h0a3.28,3.28,0,0,1,.66-0.74,2.5,2.5,0,0,1,.75-0.66h0L218,27.15l-0.32.34,1.11,1.28,0.26-.22,0.21,0.26h0Z" transform="translate(-8.25 -4.44)"/><polygon class="a" points="196.03 49.67 330.24 49.67 330.24 52.18 196.03 52.18 196.03 49.67 196.03 49.67"/><path class="a" d="M323,27.53h-0.68c-0.17.49-.25,0.55-0.64,0.55-1,0-2.19-.77-4.8-0.77-4,0-6.7,2.1-6.7,5.18a5.15,5.15,0,0,0,2.08,4.19c2.76,2.25,9.37,3.87,9.37,7.33,0,2.17-2,3.57-5,3.57-2.15,0-5.86-1.21-5.91-4.93H310v5.42h0.74a1,1,0,0,1,.94-0.76c0.83,0,3,1.06,5.63,1.06,3.85,0,7-2.57,7-5.72a4.81,4.81,0,0,0-2.14-4c-3.53-2.89-9.78-3.84-9.78-7.56,0-1.85,1.83-3,4.4-3s5.08,1.17,5.46,4.14H323v-4.7h0Z" transform="translate(-8.25 -4.44)"/><path class="a" d="M253.8,31.67c0-2.45.7-3.21,2.66-3.21h0V27.85h-8.4v0.61h0c2,0,2.66.66,2.66,3.21h0V44.26h0c0,2.59-.74,3.23-2.66,3.23h0v0.59h8.4V47.48h0c-2,0-2.66-.74-2.66-3.23h0V31.67h0Z" transform="translate(-8.25 -4.44)"/><path class="a" d="M281.17,33.29l0-4.72h-0.79a0.81,0.81,0,0,1-.61.19c-1.06,0-2.91-1.3-7.21-1.3-7.1,0-12.22,4.54-12.22,10.84,0,6,5,10.39,11.88,10.39,4,0,6.53-1.23,8.69-.94,0,0,1.17-4.63,1.19-4.7h-0.64a9.15,9.15,0,0,1-8.33,4.83c-5.16,0-9.58-4.34-9.58-10.22,0-5.46,3.55-9.39,9.22-9.39a8,8,0,0,1,7.78,5h0.64Z" transform="translate(-8.25 -4.44)"/><path class="a" d="M302.15,35.43h-0.7c-0.32,1.72-.94,2-2.53,2h-6.5V28.76h6.72c2.57,0,3.38.17,3.91,2.4h0.44v-3.4H286.68v0.61h0c2,0,2.63.7,2.63,3.21h0V44.21h0c0,2.68-.81,3.19-2.63,3.19h0V48h16.81l1.06-3.78h-0.7c-1.38,2.66-2.23,2.78-5.65,2.78h-4.08c-1.3,0-1.7-.38-1.7-1.36h0V38.39h5.78c2.4,0,2.77.21,3.25,1.93h0.7V35.43h0Z" transform="translate(-8.25 -4.44)"/><path class="a" d="M335.49,31.59c0-2.44.7-3.21,2.66-3.21h0V27.76h-8.39v0.61h0c2,0,2.65.66,2.65,3.21h0V44.17h0c0,2.59-.75,3.23-2.65,3.23h0V48h8.39V47.4h0c-2,0-2.66-.74-2.66-3.23h0V31.59h0Z" transform="translate(-8.25 -4.44)"/><path class="a" d="M247.87,16.29h0.83v3.19h0a3.15,3.15,0,0,0,.06.74,0.9,0.9,0,0,0,.21.38,1.53,1.53,0,0,0,.62.43,2,2,0,0,0,.81.15,2,2,0,0,0,1.23-.36,1.18,1.18,0,0,0,.47-1h0V16.29h0.83v3.57h0a1.82,1.82,0,0,1-.7,1.49,2.77,2.77,0,0,1-1.83.57,3.19,3.19,0,0,1-1.21-.21A2.14,2.14,0,0,1,248.3,21a1.33,1.33,0,0,1-.34-0.57,3.7,3.7,0,0,1-.09-1h0V16.29h0Z" transform="translate(-8.25 -4.44)"/><polygon class="a" points="249.44 17.37 249.44 11.85 250.18 11.85 254.05 16.14 254.05 11.85 254.88 11.85 254.88 17.37 254.13 17.37 250.29 13.08 250.29 17.37 249.44 17.37 249.44 17.37 249.44 17.37"/><polygon class="a" points="259.96 17.37 259.96 11.85 260.79 11.85 260.79 17.37 259.96 17.37 259.96 17.37 259.96 17.37"/><polygon class="a" points="267.55 17.41 264.98 11.85 265.85 11.85 267.67 15.8 269.54 11.85 270.42 11.85 267.78 17.41 267.55 17.41 267.55 17.41 267.55 17.41"/><polygon class="a" points="274.71 17.37 274.71 11.85 278.24 11.85 278.24 12.55 275.54 12.55 275.54 14.23 278.17 14.23 278.17 14.95 275.54 14.95 275.54 16.67 278.32 16.67 278.32 17.37 274.71 17.37 274.71 17.37 274.71 17.37"/><path class="a" d="M291.46,21.81V16.29h1.72a2.06,2.06,0,0,1,1.38.4A1.33,1.33,0,0,1,295,17.8a1.36,1.36,0,0,1-.28.89,1.57,1.57,0,0,1-.83.49,1.23,1.23,0,0,1,.27.21,2.74,2.74,0,0,1,.34.41h0l1.42,2h-1l-1-1.45h0a3.3,3.3,0,0,0-.74-0.83,1.15,1.15,0,0,0-.66-0.19h-0.26v2.47h-0.85Zm0.85-3.12H293a1.59,1.59,0,0,0,.87-0.21,0.79,0.79,0,0,0,.3-0.66,0.77,0.77,0,0,0-.28-0.66A1.63,1.63,0,0,0,293,17h-0.7v1.72h0Z" transform="translate(-8.25 -4.44)"/><path class="a" d="M300.06,21.39v-1h0a3,3,0,0,0,.76.62,1.73,1.73,0,0,0,.79.19A1.12,1.12,0,0,0,302.3,21a0.61,0.61,0,0,0,.26-0.51,0.8,0.8,0,0,0-.17-0.49,3.88,3.88,0,0,0-.81-0.57,5.57,5.57,0,0,1-1.25-.93,1.3,1.3,0,0,1-.26-0.81,1.32,1.32,0,0,1,.49-1,1.85,1.85,0,0,1,1.25-.42,2.4,2.4,0,0,1,.66.1,2.29,2.29,0,0,1,.68.28h0v0.89h0a3.9,3.9,0,0,0-.72-0.43,1.88,1.88,0,0,0-.66-0.13,1,1,0,0,0-.64.19,0.54,0.54,0,0,0-.25.47,1.7,1.7,0,0,0,1,1h0L302,18.65h0a4.18,4.18,0,0,1,1.11.87,1.68,1.68,0,0,1,.26.93,1.36,1.36,0,0,1-.49,1.06,1.84,1.84,0,0,1-1.25.4,2.63,2.63,0,0,1-.85-0.13,2.31,2.31,0,0,1-.74-0.4h0Z" transform="translate(-8.25 -4.44)"/><polygon class="a" points="299.79 17.37 299.79 11.85 300.61 11.85 300.61 17.37 299.79 17.37 299.79 17.37 299.79 17.37"/><path class="a" d="M316.09,17h-1.32v4h1.32a2.53,2.53,0,0,0,1.72-.53,1.82,1.82,0,0,0,.62-1.48,1.82,1.82,0,0,0-.62-1.47,2.55,2.55,0,0,0-1.72-.55h0Zm0-.74a5.46,5.46,0,0,1,1.13.11,3.87,3.87,0,0,1,.87.36,2.85,2.85,0,0,1,.91,1,2.8,2.8,0,0,1,.32,1.32,2.73,2.73,0,0,1-.32,1.32,2.68,2.68,0,0,1-.91,1,3,3,0,0,1-.87.36,4.47,4.47,0,0,1-1.13.11h-2.15V16.29h2.15Z" transform="translate(-8.25 -4.44)"/><path class="a" d="M324.78,19.47h1.83l-0.91-2-0.91,2h0Zm-1.94,2.34,2.55-5.53H326l2.57,5.53h-0.87L327,20.2h-2.51l-0.76,1.62h-0.85Z" transform="translate(-8.25 -4.44)"/><path class="a" d="M335.11,17h-1.34v4h1.34a2.47,2.47,0,0,0,1.7-.53,2,2,0,0,0,0-3,2.48,2.48,0,0,0-1.7-.55h0Zm0-.74a5.24,5.24,0,0,1,1.11.11,3.59,3.59,0,0,1,.87.36,2.66,2.66,0,0,1,.91,1,2.58,2.58,0,0,1,.34,1.32,2.74,2.74,0,0,1-1.25,2.29,3.14,3.14,0,0,1-.85.36,4.59,4.59,0,0,1-1.13.11h-2.17V16.29h2.17Z" transform="translate(-8.25 -4.44)"/><rect class="b" x="187.75" y="0.5" width="0.75" height="61.26"/><path class="c" d="M24.17,43.37A8.88,8.88,0,0,1,18.46,45a8.55,8.55,0,0,1-7.69-4.21,17.56,17.56,0,0,1-2.52-9.59,17.89,17.89,0,0,1,2.52-9.64,8.76,8.76,0,0,1,7.74-4.17,8.92,8.92,0,0,1,5.62,1.57L22.9,22.73a4.21,4.21,0,0,0-1.26-.63,7.21,7.21,0,0,0-1.81-.19,4.28,4.28,0,0,0-4.12,2.85,15.12,15.12,0,0,0-1.18,6.33,13.62,13.62,0,0,0,1.26,6.2,5,5,0,0,0,1.62,2,3.59,3.59,0,0,0,2.38.82,5.16,5.16,0,0,0,1.73-.25,8,8,0,0,0,1.25-.57Z" transform="translate(-8.25 -4.44)"/><path class="c" d="M32.21,36.2q0.54,4.6,4.92,4.6a11.73,11.73,0,0,0,3.18-.38,9.4,9.4,0,0,0,2.13-.74l1.33,3.78a13.8,13.8,0,0,1-2.92,1,20.91,20.91,0,0,1-4.4.46q-9.72-.23-9.83-11,0.07-10.62,9.2-10.85,8.94,0.15,8.61,11.26Zm6.73-4.07q-0.06-5.44-3.38-5.4-3.83,0-3.73,6.49Z" transform="translate(-8.25 -4.44)"/><path class="c" d="M60.81,44.57V29.86a3.41,3.41,0,0,0-.63-2,3.28,3.28,0,0,0-2.59-.9,7.32,7.32,0,0,0-2.65.44V44.57H49V24.71a20.82,20.82,0,0,1,8.73-1.56q4.9,0,7,1.87a6.14,6.14,0,0,1,2,4.8V44.57H60.81Z" transform="translate(-8.25 -4.44)"/><path class="c" d="M82.06,44.31a8.13,8.13,0,0,1-1.14.34,9.85,9.85,0,0,1-1.86.23A5.91,5.91,0,0,1,74.32,43a6,6,0,0,1-1.56-4.21V27.47H70.81V23.55H73l-0.11-4.49,5.91-1.57v6.06H82l0.09,3.92H78.82V38.34q0,2.46,1.89,2.46a4.06,4.06,0,0,0,1.35-.23v3.74Z" transform="translate(-8.25 -4.44)"/><path class="c" d="M95.94,27.5A4.82,4.82,0,0,0,92,27.38V44.57H86.11V24.71a13.29,13.29,0,0,1,4.27-1.3A32.06,32.06,0,0,1,97,23.22Z" transform="translate(-8.25 -4.44)"/><path class="c" d="M117.6,34a12.71,12.71,0,0,1-2.27,7.81,8.81,8.81,0,0,1-13.43,0A12.59,12.59,0,0,1,99.59,34a12.55,12.55,0,0,1,2.31-7.85,7.93,7.93,0,0,1,6.65-3,8.07,8.07,0,0,1,6.78,3A12.72,12.72,0,0,1,117.6,34ZM111.73,34a17,17,0,0,0-.55-4.93,2.62,2.62,0,0,0-2.58-2.12A2.6,2.6,0,0,0,106.07,29a15.62,15.62,0,0,0-.61,4.93,14.2,14.2,0,0,0,.65,4.85,2.55,2.55,0,0,0,2.49,2,2.6,2.6,0,0,0,2.58-2A16.2,16.2,0,0,0,111.73,34Z" transform="translate(-8.25 -4.44)"/><path class="c" d="M133.18,44.57V17.74h6.1V40.34h6.62v4.23H133.18Z" transform="translate(-8.25 -4.44)"/><path class="c" d="M150.25,44.57V17.74h13.29V22h-7.16v6.87h6.25v4.11h-6.25v7.4h7.16v4.23H150.25Z" transform="translate(-8.25 -4.44)"/><path class="c" d="M187.38,31.13A18.57,18.57,0,0,1,185,40.85q-2.41,4-7.82,4.1-5.4-.08-7.78-4.1a17.84,17.84,0,0,1-2.38-9.7,18,18,0,0,1,2.38-9.76q2.38-4,7.78-4.06,5.4,0.08,7.82,4.05A18.6,18.6,0,0,1,187.38,31.13Zm-6.21-.25a24.09,24.09,0,0,0-.72-6.44,5.22,5.22,0,0,0-1.2-2.17,2.69,2.69,0,0,0-2-.78,2.72,2.72,0,0,0-2,.78,6.18,6.18,0,0,0-1.2,2.17,23.06,23.06,0,0,0-.76,6.44,23.53,23.53,0,0,0,.72,6.41,5.44,5.44,0,0,0,1.2,2.15,2.64,2.64,0,0,0,2,.86,2.72,2.72,0,0,0,2.09-.86,4.64,4.64,0,0,0,1.17-2.15,13.1,13.1,0,0,0,.61-3Q181.17,32.6,181.17,30.89Z" transform="translate(-8.25 -4.44)"/><path class="c" d="M25.56,61.27V53H27v7.24h2.21v1h-3.7Z" transform="translate(-8.25 -4.44)"/><path class="c" d="M31.65,58.57a1.65,1.65,0,0,0,1.71,1.8,3.68,3.68,0,0,0,.52,0l0.42-.08a2.12,2.12,0,0,0,.36-0.13L34.94,60l0.34,0.93a3.93,3.93,0,0,1-.84.31,5.22,5.22,0,0,1-.56.09l-0.68,0q-2.85,0-2.91-3.37T33,54.68q2.55,0,2.51,3.32Zm2.52-1.15q0-1.86-1.24-1.84t-1.37,2.24Z" transform="translate(-8.25 -4.44)"/><path class="c" d="M40.82,60.95a1.45,1.45,0,0,1-.55.3,3,3,0,0,1-.93.14,2.18,2.18,0,0,1-1.77-.89A4,4,0,0,1,36.87,58a3.81,3.81,0,0,1,.73-2.49,2.16,2.16,0,0,1,1.76-.85,3,3,0,0,1,.94.14,1.42,1.42,0,0,1,.51.3l-0.3.83a1.11,1.11,0,0,0-.32-0.21,1.56,1.56,0,0,0-.51-0.07,1.13,1.13,0,0,0-1,.61A3.64,3.64,0,0,0,38.3,58a3.4,3.4,0,0,0,.36,1.71,1.07,1.07,0,0,0,1,.63A1.2,1.2,0,0,0,40.5,60Z" transform="translate(-8.25 -4.44)"/><path class="c" d="M45.06,61.21a1.62,1.62,0,0,1-.72.13A1.55,1.55,0,0,1,43,60.79a1.9,1.9,0,0,1-.4-1.2V55.73H41.88V54.8h0.7V53.38L44,53V54.8h1l0,0.94H44v3.78a0.91,0.91,0,0,0,.17.6,0.56,0.56,0,0,0,.51.24,1.24,1.24,0,0,0,.38-0.06v0.91Z" transform="translate(-8.25 -4.44)"/><path class="c" d="M51.29,60.88a4.77,4.77,0,0,1-2.41.52q-2.45,0-2.43-2.19V54.8h1.42v4.5a1.14,1.14,0,0,0,.26.77,1,1,0,0,0,.8.33,1.77,1.77,0,0,0,.94-0.22V54.8h1.42v6.08Z" transform="translate(-8.25 -4.44)"/><path class="c" d="M55.88,55.75a1.63,1.63,0,0,0-1.32,0v5.47H53.13V55.15a4.08,4.08,0,0,1,1.16-.39,10.83,10.83,0,0,1,1.86-.07Z" transform="translate(-8.25 -4.44)"/><path class="c" d="M61.86,60.93a4.71,4.71,0,0,1-2.27.46q-2.56,0-2.56-2a1.86,1.86,0,0,1,1-1.76A6.35,6.35,0,0,1,60.54,57V56.69a1,1,0,0,0-.34-0.87,0.93,0.93,0,0,0-.39-0.16,3.18,3.18,0,0,0-.52,0,2.94,2.94,0,0,0-.86.12,3.77,3.77,0,0,0-.71.28l-0.33-.84A2.27,2.27,0,0,1,57.78,55l0.49-.15a5.07,5.07,0,0,1,1.28-.17,2.62,2.62,0,0,1,1.65.48,2.12,2.12,0,0,1,.66,1.75v4Zm-1.32-3.2a3.77,3.77,0,0,0-1.57.44,1.28,1.28,0,0,0-.6,1.21,1.12,1.12,0,0,0,1.32,1.21,1.81,1.81,0,0,0,.85-0.18V57.73Z" transform="translate(-8.25 -4.44)"/><path class="c" d="M63.84,63.3H63l1-3.22a1.3,1.3,0,0,1,.36-0.31,1.15,1.15,0,0,1,.52-0.11,0.71,0.71,0,0,1,.44.12,0.39,0.39,0,0,1,.11.12,0.56,0.56,0,0,1,.05.18Z" transform="translate(-8.25 -4.44)"/><path class="c" d="M70.65,61.27V53h3.89v1H72.13v2.5h2.15v1H72.13v2.72h2.42v1H70.65Z" transform="translate(-8.25 -4.44)"/><path class="c" d="M79.78,59.41a1.86,1.86,0,0,1-.61,1.38,2.38,2.38,0,0,1-1.67.59,3.08,3.08,0,0,1-1.77-.46L76.11,60a1.93,1.93,0,0,0,.49.25,1.87,1.87,0,0,0,.69.12A1.09,1.09,0,0,0,78,60.08a0.81,0.81,0,0,0,.28-0.65,0.94,0.94,0,0,0-.22-0.65,1.72,1.72,0,0,0-.73-0.42,2.55,2.55,0,0,1-1.19-.84,1.68,1.68,0,0,1-.29-1,1.78,1.78,0,0,1,.56-1.33,2.08,2.08,0,0,1,1.47-.54,2.81,2.81,0,0,1,1.66.46L79.23,56a1.53,1.53,0,0,0-.41-0.25,2.17,2.17,0,0,0-.62-0.11,1,1,0,0,0-.69.25,0.8,0.8,0,0,0-.24.6,0.75,0.75,0,0,0,.28.61,2.27,2.27,0,0,0,.69.41,2.78,2.78,0,0,1,1.25.85A1.85,1.85,0,0,1,79.78,59.41Z" transform="translate(-8.25 -4.44)"/><path class="c" d="M84.95,60.95a1.45,1.45,0,0,1-.55.3,3,3,0,0,1-.93.14,2.18,2.18,0,0,1-1.77-.89A4,4,0,0,1,81,58a3.81,3.81,0,0,1,.73-2.49,2.16,2.16,0,0,1,1.76-.85,3,3,0,0,1,.94.14,1.42,1.42,0,0,1,.51.3l-0.3.83a1.11,1.11,0,0,0-.32-0.21,1.56,1.56,0,0,0-.51-0.07,1.13,1.13,0,0,0-1,.61A3.64,3.64,0,0,0,82.42,58a3.4,3.4,0,0,0,.36,1.71,1.07,1.07,0,0,0,1,.63A1.2,1.2,0,0,0,84.62,60Z" transform="translate(-8.25 -4.44)"/><path class="c" d="M89.09,55.75a1.63,1.63,0,0,0-1.32,0v5.47H86.34V55.15a4.08,4.08,0,0,1,1.16-.39,10.83,10.83,0,0,1,1.86-.07Z" transform="translate(-8.25 -4.44)"/><path class="c" d="M92.08,53a0.67,0.67,0,0,1-.22.5,0.77,0.77,0,0,1-.56.22,0.75,0.75,0,0,1-.55-0.22,0.65,0.65,0,0,1-.23-0.5,0.67,0.67,0,0,1,.23-0.53,0.77,0.77,0,0,1,.55-0.21,0.8,0.8,0,0,1,.56.21A0.7,0.7,0,0,1,92.08,53Zm-1.49,8.31V54.8H92v6.47H90.59Z" transform="translate(-8.25 -4.44)"/><path class="c" d="M96.62,61.21a1.62,1.62,0,0,1-.72.13,1.55,1.55,0,0,1-1.32-.55,1.9,1.9,0,0,1-.4-1.2V55.73H93.44V54.8h0.7V53.38L95.56,53V54.8h1l0,0.94H95.56v3.78a0.91,0.91,0,0,0,.17.6,0.56,0.56,0,0,0,.51.24,1.24,1.24,0,0,0,.38-0.06v0.91Z" transform="translate(-8.25 -4.44)"/><path class="c" d="M102.86,60.88a4.77,4.77,0,0,1-2.41.52Q98,61.39,98,59.22V54.8h1.42v4.5a1.14,1.14,0,0,0,.26.77,1,1,0,0,0,.8.33,1.77,1.77,0,0,0,.94-0.22V54.8h1.42v6.08Z" transform="translate(-8.25 -4.44)"/><path class="c" d="M107.44,55.75a1.63,1.63,0,0,0-1.32,0v5.47H104.7V55.15a4.08,4.08,0,0,1,1.16-.39,10.84,10.84,0,0,1,1.86-.07Z" transform="translate(-8.25 -4.44)"/><path class="c" d="M113.43,60.93a4.71,4.71,0,0,1-2.27.46q-2.56,0-2.56-2a1.85,1.85,0,0,1,1-1.76A6.35,6.35,0,0,1,112.1,57V56.69a1,1,0,0,0-.34-0.87,0.93,0.93,0,0,0-.39-0.16,3.18,3.18,0,0,0-.52,0,2.93,2.93,0,0,0-.86.12,3.77,3.77,0,0,0-.71.28L109,55.17a2.28,2.28,0,0,1,.39-0.18l0.49-.15a5.07,5.07,0,0,1,1.28-.17,2.62,2.62,0,0,1,1.65.48,2.12,2.12,0,0,1,.67,1.75v4Zm-1.32-3.2a3.77,3.77,0,0,0-1.57.44,1.28,1.28,0,0,0-.6,1.21,1.12,1.12,0,0,0,1.32,1.21,1.81,1.81,0,0,0,.85-0.18V57.73Z" transform="translate(-8.25 -4.44)"/><path class="c" d="M120.67,63.85h-1.5l1.06-2.58-2.11-6.47h1.51L120.73,59q0.14,0.88.12,0.93h0A9.28,9.28,0,0,1,121,59l1.16-4.19h1.32Z" transform="translate(-8.25 -4.44)"/><path class="c" d="M134,57.14a6,6,0,0,1-.69,3,2.77,2.77,0,0,1-4.62,0,6.73,6.73,0,0,1,0-6,2.77,2.77,0,0,1,4.62,0A6,6,0,0,1,134,57.14Zm-1.5-.05q0-.6,0-1.16a4.19,4.19,0,0,0-.23-1,1.71,1.71,0,0,0-.46-0.73A1.07,1.07,0,0,0,131,53.9a1,1,0,0,0-.75.28,1.88,1.88,0,0,0-.47.73,6.57,6.57,0,0,0-.3,2.18,6.76,6.76,0,0,0,.29,2.16,1.77,1.77,0,0,0,.47.72,1,1,0,0,0,.76.29,1.06,1.06,0,0,0,.78-0.29,1.62,1.62,0,0,0,.46-0.72A7.51,7.51,0,0,0,132.54,57.09Z" transform="translate(-8.25 -4.44)"/><path class="c" d="M138.46,55.75a1.63,1.63,0,0,0-1.32,0v5.47h-1.42V55.15a4.08,4.08,0,0,1,1.16-.39,10.84,10.84,0,0,1,1.86-.07Z" transform="translate(-8.25 -4.44)"/><path class="c" d="M144.44,60.93a4.71,4.71,0,0,1-2.27.46q-2.56,0-2.56-2a1.85,1.85,0,0,1,1-1.76,6.35,6.35,0,0,1,2.46-.63V56.69a1,1,0,0,0-.34-0.87,0.93,0.93,0,0,0-.39-0.16,3.18,3.18,0,0,0-.52,0,2.93,2.93,0,0,0-.86.12,3.77,3.77,0,0,0-.71.28L140,55.17a2.28,2.28,0,0,1,.39-0.18l0.49-.15a5.07,5.07,0,0,1,1.28-.17,2.62,2.62,0,0,1,1.65.48,2.12,2.12,0,0,1,.67,1.75v4Zm-1.32-3.2a3.77,3.77,0,0,0-1.57.44,1.28,1.28,0,0,0-.6,1.21,1.12,1.12,0,0,0,1.32,1.21,1.81,1.81,0,0,0,.85-0.18V57.73Z" transform="translate(-8.25 -4.44)"/><path class="c" d="M146.33,61.27V51.84h1.42v9.43h-1.42Z" transform="translate(-8.25 -4.44)"/><path class="c" d="M151.08,53a0.67,0.67,0,0,1-.22.5,0.77,0.77,0,0,1-.56.22,0.75,0.75,0,0,1-.55-0.22,0.64,0.64,0,0,1-.23-0.5,0.67,0.67,0,0,1,.23-0.53,0.77,0.77,0,0,1,.55-0.21,0.8,0.8,0,0,1,.56.21A0.7,0.7,0,0,1,151.08,53Zm-1.49,8.31V54.8H151v6.47h-1.42Z" transform="translate(-8.25 -4.44)"/><path class="c" d="M157.65,60.92a4.29,4.29,0,0,1-2.19.47q-2.89,0-2.92-3.28t2.75-3.37h0.52a2.75,2.75,0,0,1,.43.1v-3h1.42v9.08Zm-1.42-5.27a2.15,2.15,0,0,0-.63-0.09,1.36,1.36,0,0,0-1.29.71,4.33,4.33,0,0,0,0,3.5,1.24,1.24,0,0,0,1.18.67,1.28,1.28,0,0,0,.73-0.15V55.65Z" transform="translate(-8.25 -4.44)"/><path class="c" d="M164,60.93a4.71,4.71,0,0,1-2.27.46q-2.56,0-2.56-2a1.85,1.85,0,0,1,1-1.76A6.35,6.35,0,0,1,162.7,57V56.69a1,1,0,0,0-.34-0.87,0.93,0.93,0,0,0-.39-0.16,3.18,3.18,0,0,0-.52,0,2.93,2.93,0,0,0-.86.12,3.77,3.77,0,0,0-.71.28l-0.33-.84a2.28,2.28,0,0,1,.39-0.18l0.49-.15a5.07,5.07,0,0,1,1.28-.17,2.62,2.62,0,0,1,1.65.48,2.12,2.12,0,0,1,.67,1.75v4Zm-1.32-3.2a3.77,3.77,0,0,0-1.57.44,1.28,1.28,0,0,0-.6,1.21,1.12,1.12,0,0,0,1.32,1.21,1.81,1.81,0,0,0,.85-0.18V57.73Z" transform="translate(-8.25 -4.44)"/><path class="c" d="M170.72,60.92a4.29,4.29,0,0,1-2.19.47q-2.89,0-2.92-3.28t2.75-3.37h0.52a2.75,2.75,0,0,1,.43.1v-3h1.42v9.08Zm-1.42-5.27a2.15,2.15,0,0,0-.63-0.09,1.36,1.36,0,0,0-1.29.71,4.33,4.33,0,0,0,0,3.5,1.24,1.24,0,0,0,1.18.67,1.28,1.28,0,0,0,.73-0.15V55.65Z" transform="translate(-8.25 -4.44)"/></svg>