<?xml version="1.0" encoding="utf-8"?>
<!-- Generator: Adobe Illustrator 19.2.1, SVG Export Plug-In . SVG Version: 6.00 Build 0)  -->
<svg version="1.1" id="Capa_1" xmlns="http://www.w3.org/2000/svg" xmlns:xlink="http://www.w3.org/1999/xlink" x="0px" y="0px"
	 viewBox="0 0 135 164.2" style="enable-background:new 0 0 135 164.2;" xml:space="preserve">
<style type="text/css">
	.st0{fill:none;stroke:#FFFFFF;stroke-width:3;stroke-miterlimit:10;}
	.st1{fill:#FFFFFF;}
</style>
<title>logo</title>
<rect x="6.5" y="5.5" class="st0" width="123.7" height="153.2"/>
<path class="st1" d="M51.6,66.3c5.3,16.9,4.5,40.5,4.5,40.8c0,0.6,0.5,1.1,1.1,1.2c0,0,0,0,0.1,0h22.2c0.6,0,1.1-0.5,1.1-1.1
	c0,0,0,0,0-0.1c0-0.2-0.8-23.9,4.5-40.8c0.1-0.3,0-0.7-0.2-1c-6-8.1-11.2-16.7-15.5-25.8c0-0.1-0.1-0.1-0.1-0.2l0,0l-0.1-0.1l0,0
	l-0.1-0.1l0,0L68.9,39h-0.1h-0.1h-0.2h-0.2l0,0h-0.2h-0.1H68h-0.1l-0.2,0.1l0,0l-0.1,0.1l0,0l-0.1,0.1l0,0c0,0.1-0.1,0.1-0.1,0.2
	c-4.4,9.1-9.6,17.7-15.6,25.8C51.6,65.5,51.5,65.9,51.6,66.3z M67.3,44.8v19.7c-2.4,0.6-3.8,3.1-3.2,5.5c0.6,2.4,3.1,3.8,5.5,3.2
	s3.8-3.1,3.2-5.5c-0.4-1.6-1.6-2.8-3.2-3.2V44.8c3.7,7,7.8,13.7,12.3,20.1c-0.3,4.6-2.3,18-13,41.1H58.4c0.1-5,0.1-24.8-4.4-39.8
	C58.9,59.3,63.3,52.2,67.3,44.8z"/>
<path class="st1" d="M65.9,127.6h-8.1c-0.9,0-1.7-0.8-1.7-1.7v-13.8c0-0.9,0.8-1.7,1.7-1.7h8.1c0.9,0,1.7,0.8,1.7,1.7
	c0,0.9-0.8,1.7-1.7,1.7h-6.4v10.4h6.4c0.9,0,1.7,0.8,1.7,1.7S66.8,127.6,65.9,127.6z"/>
<path class="st1" d="M78.9,110.4h-8.1c-0.9,0-1.7,0.8-1.7,1.7c0,0.9,0.8,1.7,1.7,1.7h6.4v3.5h-4.7c-0.9,0-1.7,0.8-1.7,1.7
	c0,0.9,0.8,1.7,1.7,1.7h4.7v3.5h-6.4c-0.9,0-1.7,0.8-1.7,1.7c0,0.9,0.8,1.7,1.7,1.7h8.1c0.9,0,1.7-0.8,1.7-1.7v-13.8
	C80.6,111.2,79.9,110.4,78.9,110.4C78.9,110.4,78.9,110.4,78.9,110.4z"/>
</svg>
